<?xml version="1.0" encoding="UTF-8"?>
<svg width="14px" height="11px" viewBox="0 0 14 11" version="1.1" xmlns="http://www.w3.org/2000/svg" xmlns:xlink="http://www.w3.org/1999/xlink">
    <!-- Generator: Sketch 53.2 (72643) - https://sketchapp.com -->
    <title>Path</title>
    <desc>Created with Sketch.</desc>
    <g id="Page-1" stroke="none" stroke-width="1" fill="none" fill-rule="evenodd">
        <g id="макет-контакты" transform="translate(-705.000000, -993.000000)" fill="#FFFFFF" fill-rule="nonzero">
            <g id="checkmark-for-verification" transform="translate(705.000000, 993.000000)">
                <path d="M13.9025324,1.50957842 L12.0423001,0.0632848092 C11.985221,0.0186234047 11.9093546,-0.00408793451 11.8344921,0.000606588125 C11.7586258,0.00504735278 11.6877789,0.0358789474 11.6375837,0.0865036644 L4.89049483,6.88036607 L2.49145341,4.07113835 C2.44570411,4.01759542 2.37758212,3.98219618 2.30228939,3.97306089 C2.22714008,3.96316433 2.1504132,3.98118115 2.08989219,4.0219093 L0.113924186,5.34246583 C-0.0124241814,5.42696724 -0.0375217574,5.58607349 0.0579924458,5.69785388 L4.50011997,10.899385 C4.5520361,10.96016 4.63234834,10.9972087 4.71839717,11 C4.72183912,11 4.72542449,11 4.72886645,11 C4.81118649,11 4.88977776,10.9687878 4.94441877,10.9137223 L13.9284905,1.86763093 C14.0331832,1.76244824 14.0215666,1.60194632 13.9025324,1.50957842 Z" id="Path"></path>
            </g>
        </g>
    </g>
</svg>