<svg width="24" height="18" viewBox="0 0 24 18" fill="none" xmlns="http://www.w3.org/2000/svg">
<path d="M23.8425 3.97453C23.8425 1.86516 22.2909 0.168281 20.3737 0.168281C17.7769 0.0468748 15.1284 0 12.4219 0H11.5781C8.87811 0 6.22498 0.0468749 3.62811 0.16875C1.71561 0.16875 0.164042 1.875 0.164042 3.98438C0.0468549 5.65266 -0.00283263 7.32141 -2.01251e-05 8.99016C-0.00470763 10.6589 0.0484174 12.3292 0.159355 14.0011C0.159355 16.1105 1.71092 17.8214 3.62342 17.8214C6.35154 17.948 9.14998 18.0042 11.9953 17.9995C14.8453 18.0089 17.6359 17.9495 20.3672 17.8214C22.2844 17.8214 23.8359 16.1105 23.8359 14.0011C23.9484 12.3277 24 10.6589 23.9953 8.98547C24.0059 7.31672 23.955 5.64641 23.8425 3.97453ZM9.70311 13.5886V4.37766L16.5 8.98078L9.70311 13.5886Z" fill="white"/>
</svg>
