<?xml version="1.0" encoding="UTF-8"?>
<svg width="14px" height="11px" viewBox="0 0 14 11" version="1.1" xmlns="http://www.w3.org/2000/svg" xmlns:xlink="http://www.w3.org/1999/xlink">
    <!-- Generator: Sketch 53.2 (72643) - https://sketchapp.com -->
    <title>Path Copy</title>
    <desc>Created with Sketch.</desc>
    <g id="Page-1" stroke="none" stroke-width="1" fill="none" fill-rule="evenodd">
        <g id="макет-контакты" transform="translate(-810.000000, -1140.000000)" fill="#43A62C" fill-rule="nonzero">
            <g id="checkmark-for-verification" transform="translate(705.000000, 993.000000)">
                <path d="M118.902532,148.509578 L117.0423,147.063285 C116.985221,147.018623 116.909355,146.995912 116.834492,147.000607 C116.758626,147.005047 116.687779,147.035879 116.637584,147.086504 L109.890495,153.880366 L107.491453,151.071138 C107.445704,151.017595 107.377582,150.982196 107.302289,150.973061 C107.22714,150.963164 107.150413,150.981181 107.089892,151.021909 L105.113924,152.342466 C104.987576,152.426967 104.962478,152.586073 105.057992,152.697854 L109.50012,157.899385 C109.552036,157.96016 109.632348,157.997209 109.718397,158 C109.721839,158 109.725424,158 109.728866,158 C109.811186,158 109.889778,157.968788 109.944419,157.913722 L118.92849,148.867631 C119.033183,148.762448 119.021567,148.601946 118.902532,148.509578 Z" id="Path-Copy"></path>
            </g>
        </g>
    </g>
</svg>